<?xml version="1.0" encoding="utf-8"?>
<!-- Generator: Adobe Illustrator 26.0.3, SVG Export Plug-In . SVG Version: 6.00 Build 0)  -->
<svg version="1.1" id="Layer_1" xmlns="http://www.w3.org/2000/svg" xmlns:xlink="http://www.w3.org/1999/xlink" x="0px" y="0px"
	 viewBox="0 0 321 190" style="enable-background:new 0 0 321 190;" xml:space="preserve">
<style type="text/css">
	.st0{fill:#5DECE8;}
	.st1{fill:#37659D;}
	.st2{fill:#69A0E1;}
	.st3{fill:#37659E;}
	.st4{fill:#36649D;}
	.st5{fill:#35649C;}
	.st6{fill:#38669E;}
</style>
<g>
	<path class="st0" d="M73.4,1c2,0.5,3.8,1.3,5.1,3.1c1.3,2,1.5,4.1,1.1,6.4c-1.2,7.1-2.4,14.1-3.5,21.2c-0.5,3.4-3.2,6.1-6.3,6.3
		c-3.8,0.3-6.9-1.7-7.7-5.2c-0.3-1.4-0.2-3,0-4.5c1.1-7,2.2-13.9,3.4-20.8C66.1,4.2,68,2,71.2,1.2c0.1,0,0.2-0.1,0.3-0.2
		C72.2,1,72.8,1,73.4,1z"/>
	<path class="st1" d="M320.9,93.8c-0.6,0.2-1.2,0.7-1.8,0.7c-5.3,0.1-10.6,0-15.9,0c-1.5,0-1.7,0.3-1.3,1.8c0.8,2.6,2.5,4.3,5.1,4.9
		c2.8,0.7,5.3,0,7.3-2.2c0.8-0.9,1.4-1,2.4-0.5c0.4,0.2,0.8,0.4,1.2,0.5c1.6,0.7,1.7,0.9,0.7,2.3c-2.9,3.9-8.3,5.6-13.5,4.1
		c-4.8-1.4-8.3-5.6-8.6-10.5c-0.4-5.3,2-9.9,6.4-12.1c4.6-2.3,10.1-1.7,13.9,1.5c2.3,1.9,3.5,4.4,3.9,7.3c0,0.3,0.2,0.5,0.2,0.7
		C320.9,92.8,320.9,93.3,320.9,93.8z M308.7,90.9c1.8,0,3.5,0,5.3,0c1.3,0,1.5-0.4,0.9-1.5c-1.3-2.5-3.4-3.7-6.1-3.7
		c-2.8,0-5,1.2-6.3,3.8c-0.6,1.1-0.3,1.5,1,1.5C305.2,90.9,307,90.9,308.7,90.9z"/>
	<path class="st2" d="M69.3,72.2c3.1,0,6.2,0,9.4,0c1.5,0,2.2-0.5,2.5-2c0.4-2.4,0.8-4.7,1.2-7.1c0.6-3.7,3.2-6.3,6.9-6.4
		c3.3-0.1,6.2,1.8,7,5.2c0.4,1.6,0.2,3.5-0.1,5.2c-2.6,15.5-5.2,31-7.9,46.6c-1.9,11-3.8,22.1-5.7,33.1c-0.3,2-0.7,4.1-1,6.2
		c-0.6,0-1,0-1.5,0c-23.8,0-47.6-0.1-71.5,0.1c-4.7,0-8.3-4.1-7.5-8.9c2.9-15.6,5.5-31.3,8.2-47c1.1-6.4,2.2-12.9,3.4-19.3
		c0.6-3.1,3.2-5.6,6.4-5.7c7-0.1,14.1,0,21.1,0c0.1,0,0.1,0.1,0.4,0.2c-0.3,1.6-0.5,3.1-0.8,4.7c-0.5,2.8-1,5.7-1.4,8.5
		c-0.1,0.9-0.5,1.1-1.3,1c-3,0-6.1,0-9.1,0c-1.8,0-2.5,0.5-2.8,2.3c-1.3,7.6-2.6,15.2-3.9,22.7c-1.4,8-2.8,16-4.2,24
		c-0.3,1.8,0.5,2.9,2.3,2.9c15.9,0,31.9,0,47.8,0c1.5,0,2.4-0.7,2.7-2.2c1.4-8.3,2.8-16.6,4.1-24.9c1.2-7.4,2.5-14.8,3.7-22.2
		c0.3-1.5-0.5-2.6-2.1-2.7c-3,0-6,0-9,0c0.5-3.1,1-6.1,1.5-9.2C68.6,75.7,69,74,69.3,72.2z"/>
	<path class="st0" d="M69.3,72.2c-0.4,1.8-0.8,3.5-1.1,5.3c-0.5,3.1-1,6.1-1.5,9.2c-0.4,2.2-0.6,4.4-1.1,6.6
		c-0.7,3.4-4.2,6.1-7.3,5.7c-4.2-0.5-7-3.3-6.8-7.3c0.2-3,0.8-5.9,1.3-8.9c1.4-8.3,2.8-16.6,4.2-25c0.4-2.4,0.8-4.8,1.2-7.2
		c0.8-3.9,4.5-6.4,8.5-5.6c3.8,0.8,6.2,4.6,5.5,8.7c-1,5.8-2,11.7-3,17.5C69.3,71.6,69.3,71.9,69.3,72.2z"/>
	<path class="st3" d="M125.7,88.7c0-5,0-10.1,0-15.1c0-1.5,0.1-1.6,1.6-1.6c4.1,0,8.2-0.1,12.3,0.2c8.1,0.6,13.7,6.4,14.3,14.5
		c0.2,2.9,0.2,5.8-0.8,8.6c-1.8,5.6-5.8,8.9-11.5,9.6c-4.3,0.6-8.8,0.4-13.1,0.5c-3.1,0.1-2.8,0.2-2.8-2.8
		C125.7,98,125.7,93.4,125.7,88.7z M131.5,88.7c0,3.4,0,6.8,0,10.2c0,0.7,0,1.4,0.9,1.3c2.6-0.1,5.3,0,7.9-0.3
		c4.2-0.6,6.7-3.1,7.6-7.3c0.5-2.6,0.5-5.2-0.2-7.8c-1.1-4.2-3.9-6.7-8.2-7.3c-2.2-0.3-4.4-0.1-6.6-0.3c-1.1-0.1-1.5,0.4-1.5,1.5
		C131.5,82,131.5,85.4,131.5,88.7z"/>
	<path class="st1" d="M214.2,102.3c-2.7,2.6-5.8,3.4-9.4,2.8c-2.6-0.5-4.7-1.7-6.4-3.7c-3.7-4.1-3.9-11-0.5-15.5
		c2-2.6,4.6-4,7.8-4.4c3.2-0.4,6.1,0.6,8.6,3c0.2-0.6,0.3-0.9,0.3-1.2c-0.1-1.1,0.5-1.5,1.5-1.5c0.8,0,1.7,0,2.5,0
		c1.1-0.1,1.5,0.4,1.5,1.5c0,3.4,0,6.9,0,10.3c0,3.8,0.1,7.7-0.1,11.5c-0.4,6.3-4,9.9-10.3,10.6c-4.9,0.6-9.2-0.6-12.5-4.5
		c-0.7-0.8-0.8-1.5,0.1-2.2c0.8-0.6,1.4-1.6,2.2-1.7c0.7,0,1.4,1,2.1,1.6c2.4,2.2,6.4,2.8,9.4,1.6
		C214.2,109.3,215.2,104.8,214.2,102.3z M201,93.2c0,4,3,7.2,6.9,7.2c3.9,0,7.1-3.1,7.1-7.2c0-4-3.1-7.1-7-7.1
		C204.1,86.1,201,89.2,201,93.2z"/>
	<path class="st4" d="M250.5,133.5c0.5-0.5,0.9-0.8,1.2-1.1c2.4-2.2,6.4-2.7,9.2-1.1c0.7,0.4,1.4,1,1.9,1.6c0.6,0.8,1,0.8,1.6,0.1
		c2.5-2.7,6.5-3.4,9.8-1.8c2.6,1.2,4.1,3.4,4.1,6.3c0.1,5.3,0.1,10.6,0.1,15.9c0,0.8-0.4,1.1-1.2,1.1c-1,0-1.9-0.1-2.9,0
		c-1.1,0.1-1.4-0.4-1.4-1.4c0-2.6,0-5.2,0-7.8c0-1.9,0-3.8,0-5.6c0-2.9-1.5-4.5-4-4.5c-2.6-0.1-4.4,1.6-4.5,4.4
		c-0.1,4.4,0,8.9,0,13.3c0,1.5-0.1,1.6-1.6,1.6c-0.8,0-1.6,0-2.4,0c-1.1,0.1-1.5-0.4-1.5-1.5c0-4.4,0-8.7,0-13.1c0-0.5,0-1-0.1-1.5
		c-0.5-2.2-1.8-3.3-4.1-3.3c-2.2,0-3.8,1.3-4.2,3.4c-0.1,0.7-0.2,1.5-0.2,2.3c0,4.1,0,8.1,0,12.2c0,1.1-0.3,1.6-1.4,1.5
		c-1-0.1-1.9,0-2.9,0c-0.7,0-1.1-0.3-1.1-1.1c0-7.1,0-14.3,0-21.4c0-0.8,0.3-1.1,1.1-1.1c0.9,0,1.8,0,2.8,0c1,0,1.7,0.2,1.6,1.5
		C250.2,132.6,250.3,132.9,250.5,133.5z"/>
	<path class="st5" d="M212.8,137.7c0,5,0,10.1,0,15.1c0,1.4-0.2,1.6-1.6,1.6c-1,0-1.9,0-2.9,0c-1,0.1-1.3-0.4-1.3-1.4
		c0-3.6,0-7.2,0-10.8c0-1.2-0.3-1.6-1.5-1.5c-4.4,0-8.7,0-13.1,0c-1,0-1.4,0.4-1.4,1.4c0,3.6,0,7.1,0,10.7c0,1.5-0.1,1.6-1.6,1.6
		c-0.9,0-1.8,0-2.8,0c-0.9,0.1-1.3-0.4-1.3-1.3c0-0.3,0-0.6,0-0.8c0-9.8,0-19.6,0-29.4c0-1.7,0-1.7,1.7-1.7c0.9,0,1.8,0,2.8,0
		c1,0,1.3,0.4,1.3,1.4c0,3.8,0,7.6,0,11.4c0,1.5,0.2,1.6,1.7,1.6c4.2,0,8.4,0,12.6,0c1.6,0,1.7-0.1,1.7-1.7c0-3.7,0-7.4,0-11
		c0-1.6,0.1-1.7,1.7-1.7c0.9,0,1.8,0,2.8,0c1,0,1.3,0.4,1.3,1.4C212.7,127.7,212.8,132.7,212.8,137.7z"/>
	<path class="st1" d="M186.7,102.7c-3,2.8-6.4,3.8-10.2,3c-2.5-0.5-4.6-1.8-6.3-3.7c-3.7-4.1-4.1-10.9-0.9-15.6
		c2-2.9,4.7-4.7,8.2-5.1c3.4-0.4,6.4,0.7,8.9,3c0.2-0.2,0.3-0.2,0.3-0.3c0.2-2.6,0.2-2.2,2.7-2.3c3.3,0,2.9,0,2.9,2.8
		c0,6.4,0,12.8,0,19.2c0,1.6-0.1,1.7-1.7,1.7c-0.7,0-1.4,0-2.2,0c-1.2,0.1-1.8-0.3-1.6-1.6C186.9,103.7,186.8,103.4,186.7,102.7z
		 M187.3,93.7c0-4.3-3.2-7.6-7.3-7.6c-4.1,0-7.3,3.3-7.3,7.4c0,4.3,3.2,7.6,7.4,7.6C184.2,101.1,187.3,97.9,187.3,93.7z"/>
	<path class="st3" d="M143.1,151.9c-6.4,4.5-12.3,4.3-17.2-1.9c-3.4-4.4-3.1-10.9,0.3-15.3c2-2.6,4.7-4.1,8.1-4.4
		c3.3-0.3,6.2,0.8,8.7,3.2c0.1-0.4,0.2-0.6,0.3-0.8c0.2-1.9,0.2-1.9,2-1.9c3.5,0,3.5,0,3.5,3.5c0,6.2,0,12.4,0,18.6
		c0,1.1-0.3,1.6-1.5,1.5c-0.8-0.1-1.7-0.1-2.5,0c-1.1,0.1-1.6-0.3-1.5-1.5C143.3,152.7,143.2,152.3,143.1,151.9z M129,142.5
		c-0.1,4.2,3.1,7.5,7.1,7.6c4.2,0.1,7.5-3.1,7.5-7.3c0.1-4.3-3-7.6-7.2-7.6C132.3,135.1,129.1,138.3,129,142.5z"/>
	<path class="st2" d="M79.2,168.7c-0.3,2-0.8,4.5-1.2,7c-0.4,2-0.8,4-1.1,6c-0.6,4.3-4.6,6.7-7.9,6.2c-4.3-0.6-6.9-4.2-6.3-8.4
		c0.7-4.3,1.5-8.6,2.4-12.9c0.7-3.6,4.2-6,7.7-5.6C76.5,161.4,79.2,164.4,79.2,168.7z"/>
	<path class="st1" d="M296.7,143.4c-2.7,0-5.4,0-8,0c-1.6,0-1.8,0.3-1.4,1.8c0.7,2.6,2.4,4.3,5,4.9c2.7,0.7,5.2,0.1,7.1-2
		c0.9-1,1.7-1.3,2.9-0.6c0.2,0.1,0.4,0.2,0.5,0.2c2.2,0.9,2.2,1.2,0.6,3c-3.6,4.1-8.2,4.9-13.2,3.5c-4.8-1.3-8-5.3-8.5-10.4
		c-0.6-5.4,2.1-10.3,7-12.5c4.8-2.2,10.6-1.1,14.2,2.6c2.1,2.2,3.1,5,3.1,8c0,0.9-0.3,1.3-1.3,1.3
		C302.1,143.4,299.4,143.4,296.7,143.4z M293.9,139.8c1.8,0,3.7,0,5.5,0c1.1,0,1.4-0.3,0.8-1.4c-1.3-2.5-3.3-3.8-6.1-3.8
		c-2.9,0-5,1.2-6.4,3.8c-0.5,1-0.3,1.3,0.8,1.3C290.4,139.9,292.1,139.8,293.9,139.8z"/>
	<path class="st1" d="M274.4,93.7c0,7-5.5,12.3-12.8,12.3c-7.1,0-12.5-5.4-12.5-12.4c0.1-6.9,5.6-12.2,12.8-12.1
		C269.1,81.5,274.5,86.8,274.4,93.7z M261.8,86.3c-4.2,0-7.3,3.3-7.3,7.5c0,4.2,3.2,7.3,7.4,7.3c4.1,0,7.3-3.3,7.3-7.4
		C269.1,89.5,265.9,86.2,261.8,86.3z"/>
	<path class="st1" d="M229.4,130.4c7.2,0,12.6,5.3,12.6,12.3c0,7-5.4,12.2-12.7,12.2c-7.2,0-12.6-5.3-12.6-12.3
		C216.7,135.6,222.2,130.4,229.4,130.4z M229.3,135.2c-4.1,0-7.4,3.3-7.4,7.4c0,4.1,3.2,7.4,7.3,7.4c4.1,0,7.5-3.3,7.4-7.5
		C236.7,138.5,233.4,135.2,229.3,135.2z"/>
	<path class="st3" d="M230.4,84.4c0.4-0.3,0.7-0.4,0.8-0.5c2.9-2.7,6.3-3.1,9.8-1.7c3.5,1.4,4.6,4.6,4.7,8.1c0.1,4.7,0,9.3,0,14
		c0,0.9-0.4,1.3-1.3,1.3c-1,0-1.9,0-2.9,0c-1,0-1.3-0.4-1.3-1.4c0-4,0-8,0-12c0-0.4,0-0.7,0-1.1c-0.3-3.3-1.8-4.9-4.8-4.9
		c-3,0-5.1,1.9-5.2,5.1c-0.1,4.1-0.1,8.3-0.1,12.5c0,1.8,0,1.8-1.8,1.8c-4.3,0-3.6,0.5-3.6-3.6c0-6.1,0-12.3,0-18.4
		c0-1.5,0.1-1.6,1.6-1.6c0.8,0,1.5,0,2.3,0c1.1-0.1,1.7,0.4,1.5,1.5C230.2,83.6,230.3,83.9,230.4,84.4z"/>
	<path class="st0" d="M62.3,113.1c-0.5,2.9-0.9,5.9-1.6,8.8c-1,3.6-4.6,5.6-8.2,4.8c-3.8-0.9-6.2-4.3-5.6-8.3
		c0.3-2.2,0.7-4.5,1.2-6.7c0.7-3.4,3.2-5.8,7-5.8c3.6,0,6.3,2.4,7,5.8c0.1,0.5,0.1,0.9,0.1,1.4C62.2,113.1,62.3,113.1,62.3,113.1z"
		/>
	<path class="st2" d="M93.3,49.6c-4.4,0-7.9-4-7.2-8.4c0.3-2.2,0.7-4.3,1.1-6.5c0.7-3.8,4.3-6.6,7.8-6.1c4.3,0.7,7,4.2,6.3,8.3
		c-0.3,2.2-0.7,4.3-1,6.5C99.6,47.1,96.7,49.6,93.3,49.6z"/>
	<path class="st1" d="M286.1,106c-3.8-0.1-6.6-0.9-9.2-2.4c-0.8-0.5-1-1-0.5-1.8c0.4-0.5,0.7-1.1,1-1.7c0.5-1,1-1.1,2.1-0.6
		c1.7,0.8,3.5,1.4,5.4,1.9c0.7,0.2,1.8,0,2.4-0.3c0.7-0.4,1.3-1.2,1.5-1.9c0.4-1-0.2-1.8-1.1-2.3c-0.9-0.5-1.9-0.8-2.9-1.2
		c-1.4-0.5-2.8-0.9-4.2-1.5c-2.3-1.1-3.7-2.8-3.7-5.5c0-2.8,1.1-4.9,3.6-6.1c4.2-2,8.2-1.3,12.2,0.7c0.6,0.3,0.7,0.8,0.4,1.4
		c-0.1,0.1-0.1,0.2-0.2,0.3c-1.5,2.4-1.5,2.4-4.2,1.4c-1.5-0.6-3.1-1-4.8-0.5c-0.9,0.3-1.7,0.8-1.8,1.9c-0.1,1,0.5,1.7,1.3,2.1
		c1.2,0.5,2.4,0.9,3.6,1.3c1.2,0.4,2.3,0.8,3.5,1.3c2.6,1.2,3.8,3.3,3.7,6.1c-0.1,3-1.3,5.3-4.2,6.4
		C288.5,105.6,286.9,105.8,286.1,106z"/>
	<path class="st1" d="M156.6,142.2c0-2,0-4,0-6c0-0.9-0.3-1.4-1.2-1.3c-3,0.2-2.5-0.2-2.6-3c0-0.8,0.4-1,1.1-1
		c2.7-0.1,2.7-0.1,2.7-2.8c0-0.9,0-1.8,0-2.6c0-0.8,0.4-1.2,1.1-1.2c1,0,2.1,0,3.1,0c0.9,0,1.2,0.4,1.2,1.2c0,1.3,0.1,2.6,0,3.8
		c-0.1,1.2,0.5,1.5,1.6,1.5c1,0,2,0,3,0c0.7,0,1,0.3,1,1c0,3.3,0.3,3-2.7,3c-3.4,0-2.8-0.2-2.8,2.8c0,3,0,6.1,0,9.1
		c0,2.3,1.1,3.3,3.3,3.3c0.4,0,0.8,0,1.2,0c0.8,0,1.1,0.5,1,1.2c-0.2,1.1,0.9,2.8-0.8,3.1c-1.9,0.3-3.9,0.1-5.8-0.4
		c-2.7-0.7-4.3-3.1-4.4-6C156.6,146,156.6,144.1,156.6,142.2z"/>
	<path class="st4" d="M158.3,93.5c0-3.4,0-6.8,0-10.2c0-1.1,0.3-1.6,1.5-1.5c1,0.1,1.9,0,2.9,0c0.7,0,1,0.3,1.1,1c0,0.3,0,0.6,0,0.8
		c0,6.7,0,13.3,0,20c0,1.7-0.1,1.9-1.8,1.9c-4.2,0-3.6,0.5-3.6-3.6C158.3,99.1,158.3,96.3,158.3,93.5z"/>
	<path class="st6" d="M161,71.8c1.8,0,3.3,1.4,3.4,3.2c0.1,1.8-1.5,3.4-3.3,3.4c-1.8,0-3.3-1.5-3.4-3.2
		C157.6,73.3,159.1,71.8,161,71.8z"/>
</g>
</svg>
